<svg width="23" height="24" viewBox="0 0 23 24" fill="none" xmlns="http://www.w3.org/2000/svg">
<path d="M10.164 6C10.164 6.55228 10.5777 7 11.088 7C11.5983 7 12.012 6.55228 12.012 6C12.012 5.44772 11.5983 5 11.088 5C10.5777 5 10.164 5.44772 10.164 6Z" fill="#1B1B1B"/>
<path d="M10.164 12C10.164 12.5523 10.5777 13 11.088 13C11.5983 13 12.012 12.5523 12.012 12C12.012 11.4477 11.5983 11 11.088 11C10.5777 11 10.164 11.4477 10.164 12Z" fill="#1B1B1B"/>
<path d="M10.164 18C10.164 18.5523 10.5777 19 11.088 19C11.5983 19 12.012 18.5523 12.012 18C12.012 17.4477 11.5983 17 11.088 17C10.5777 17 10.164 17.4477 10.164 18Z" fill="#1B1B1B"/>
</svg>
